<svg  viewBox="0 0 50 50" fill="none" xmlns="http://www.w3.org/2000/svg">
<path d="M18.9223 6.56472L36.1196 23.711C36.3237 23.9151 36.4679 24.1362 36.5523 24.3743C36.638 24.6125 36.6809 24.8676 36.6809 25.1398C36.6809 25.412 36.638 25.6671 36.5523 25.9053C36.4679 26.1434 36.3237 26.3645 36.1196 26.5687L18.9223 43.7659C18.446 44.2422 17.8507 44.4803 17.1362 44.4803C16.4218 44.4803 15.8095 44.2252 15.2991 43.7149C14.7888 43.2046 14.5337 42.6092 14.5337 41.9288C14.5337 41.2484 14.7888 40.6531 15.2991 40.1428L30.3021 25.1398L15.2991 10.1368C14.8229 9.66057 14.5847 9.07406 14.5847 8.37732C14.5847 7.67922 14.8399 7.07502 15.3502 6.56472C15.8605 6.05441 16.4558 5.79926 17.1362 5.79926C17.8167 5.79926 18.412 6.05441 18.9223 6.56472Z" fill="#6D28D9"/>
</svg>
