<svg  viewBox="0 0 45 45" fill="none" xmlns="http://www.w3.org/2000/svg">
<path d="M24.6094 7.18414L36.9844 19.5591C37.1719 19.7466 37.305 19.9498 37.3838 20.1685C37.4613 20.3873 37.5 20.6216 37.5 20.8716C37.5 21.1216 37.4613 21.356 37.3838 21.5748C37.305 21.7935 37.1719 21.9966 36.9844 22.1841L24.6094 34.5591C24.2656 34.9029 23.8363 35.0829 23.3213 35.0991C22.805 35.1141 22.3594 34.9341 21.9844 34.5591C21.6094 34.2154 21.4138 33.786 21.3975 33.271C21.3825 32.7548 21.5625 32.3091 21.9375 31.9341L31.125 22.7466L10.1719 22.7466C9.64063 22.7466 9.19501 22.5673 8.83501 22.2085C8.47626 21.8485 8.29688 21.4029 8.29688 20.8716C8.29688 20.3404 8.47626 19.8954 8.83501 19.5366C9.19501 19.1766 9.64063 18.9966 10.1719 18.9966L31.125 18.9966L21.9375 9.80914C21.5938 9.46539 21.4138 9.02788 21.3975 8.49663C21.3825 7.96538 21.5625 7.52789 21.9375 7.18414C22.2813 6.80914 22.7188 6.62163 23.25 6.62163C23.7813 6.62163 24.2344 6.80914 24.6094 7.18414Z" />
</svg>
