<svg  viewBox="0 0 41 42" fill="none" xmlns="http://www.w3.org/2000/svg">
<path d="M4.66658 27.6667V4.66671H0.833252V0.833374H6.58325C7.09158 0.833374 7.57909 1.03531 7.93854 1.39475C8.29798 1.7542 8.49992 2.24171 8.49992 2.75004V25.75H32.3394L36.1727 10.4167H12.3333V6.58337H38.6299C38.9213 6.58338 39.2088 6.64981 39.4706 6.7776C39.7324 6.9054 39.9616 7.0912 40.1409 7.32088C40.3201 7.55057 40.4446 7.81809 40.505 8.10312C40.5653 8.38815 40.5599 8.68318 40.4891 8.96579L35.6974 28.1325C35.5936 28.5469 35.3542 28.9148 35.0174 29.1777C34.6806 29.4406 34.2655 29.5834 33.8382 29.5834H6.58325C6.07492 29.5834 5.58741 29.3814 5.22796 29.022C4.86852 28.6626 4.66658 28.175 4.66658 27.6667V27.6667ZM8.49992 41.0834C7.48325 41.0834 6.50823 40.6795 5.78934 39.9606C5.07045 39.2417 4.66658 38.2667 4.66658 37.25C4.66658 36.2334 5.07045 35.2584 5.78934 34.5395C6.50823 33.8206 7.48325 33.4167 8.49992 33.4167C9.51658 33.4167 10.4916 33.8206 11.2105 34.5395C11.9294 35.2584 12.3333 36.2334 12.3333 37.25C12.3333 38.2667 11.9294 39.2417 11.2105 39.9606C10.4916 40.6795 9.51658 41.0834 8.49992 41.0834ZM31.4999 41.0834C30.4833 41.0834 29.5082 40.6795 28.7893 39.9606C28.0704 39.2417 27.6666 38.2667 27.6666 37.25C27.6666 36.2334 28.0704 35.2584 28.7893 34.5395C29.5082 33.8206 30.4833 33.4167 31.4999 33.4167C32.5166 33.4167 33.4916 33.8206 34.2105 34.5395C34.9294 35.2584 35.3332 36.2334 35.3332 37.25C35.3332 38.2667 34.9294 39.2417 34.2105 39.9606C33.4916 40.6795 32.5166 41.0834 31.4999 41.0834Z" fill="#FBBF24"/>
</svg>
