<svg  viewBox="0 0 27 27" fill="none" xmlns="http://www.w3.org/2000/svg">
<path fill-rule="evenodd" clip-rule="evenodd" d="M21.1873 7.24685C21.2814 7.15279 21.3561 7.04111 21.4072 6.91818C21.4582 6.79524 21.4845 6.66347 21.4845 6.53037C21.4846 6.39728 21.4585 6.26547 21.4076 6.14248C21.3568 6.01948 21.2822 5.90771 21.1881 5.81354C21.0941 5.71937 20.9824 5.64464 20.8595 5.59363C20.7365 5.54263 20.6048 5.51633 20.4717 5.51625C20.3386 5.51617 20.2068 5.5423 20.0838 5.59316C19.9608 5.64402 19.849 5.7186 19.7548 5.81266L13.6428 11.9247L7.53249 5.81266C7.34231 5.62247 7.08436 5.51562 6.8154 5.51562C6.54643 5.51563 6.28849 5.62247 6.0983 5.81266C5.90811 6.00284 5.80127 6.26079 5.80127 6.52975C5.80127 6.79871 5.90811 7.05666 6.0983 7.24685L12.2103 13.3571L6.0983 19.4674C6.00413 19.5616 5.92943 19.6734 5.87847 19.7964C5.8275 19.9195 5.80127 20.0513 5.80127 20.1845C5.80127 20.3177 5.8275 20.4496 5.87847 20.5726C5.92943 20.6956 6.00413 20.8074 6.0983 20.9016C6.28849 21.0918 6.54643 21.1986 6.8154 21.1986C6.94857 21.1986 7.08045 21.1724 7.20348 21.1214C7.32652 21.0705 7.43832 20.9958 7.53249 20.9016L13.6428 14.7896L19.7548 20.9016C19.945 21.0916 20.2029 21.1982 20.4717 21.198C20.7405 21.1979 20.9982 21.0909 21.1881 20.9007C21.3781 20.7105 21.4847 20.4527 21.4845 20.1839C21.4844 19.9151 21.3774 19.6574 21.1873 19.4674L15.0752 13.3571L21.1873 7.24685Z" fill="#6D28D9"/>
</svg>
