<svg  viewBox="0 0 23 23" fill="none" xmlns="http://www.w3.org/2000/svg">
<path d="M10 12.5H12.5H17.5V10H12.5H10H5V12.5H10ZM2.5 22.5C1.8125 22.5 1.22375 22.2554 0.73375 21.7663C0.244583 21.2763 0 20.6875 0 20V2.5C0 1.8125 0.244583 1.22375 0.73375 0.73375C1.22375 0.244583 1.8125 0 2.5 0H20C20.6875 0 21.2763 0.244583 21.7663 0.73375C22.2554 1.22375 22.5 1.8125 22.5 2.5V20C22.5 20.6875 22.2554 21.2763 21.7663 21.7663C21.2763 22.2554 20.6875 22.5 20 22.5H2.5ZM2.5 20H20V2.5H2.5V20Z" fill="#FBBF24"/>
</svg>
