<svg viewBox="0 0 23 23" fill="none" xmlns="http://www.w3.org/2000/svg">
<path d="M10.75 17.5H13.25V12.5H18.25V10H13.25V5H10.75V10H5.75V12.5H10.75V17.5ZM3.25 22.5C2.5625 22.5 1.97375 22.2554 1.48375 21.7663C0.994583 21.2763 0.75 20.6875 0.75 20V2.5C0.75 1.8125 0.994583 1.22375 1.48375 0.73375C1.97375 0.244583 2.5625 0 3.25 0H20.75C21.4375 0 22.0263 0.244583 22.5163 0.73375C23.0054 1.22375 23.25 1.8125 23.25 2.5V20C23.25 20.6875 23.0054 21.2763 22.5163 21.7663C22.0263 22.2554 21.4375 22.5 20.75 22.5H3.25ZM3.25 20H20.75V2.5H3.25V20Z" fill="#FBBF24"/>
</svg>
