<svg  viewBox="0 0 50 50" fill="none" xmlns="http://www.w3.org/2000/svg">
<g clip-path="url(#clip0_97_222)">
<path fill-rule="evenodd" clip-rule="evenodd" d="M25 45.3125C28.5659 45.3177 32.0698 44.3798 35.1562 42.5938V35.9375C35.1562 34.0727 34.4155 32.2843 33.0968 30.9657C31.7782 29.647 29.9898 28.9062 28.125 28.9062H21.875C20.0102 28.9062 18.2218 29.647 16.9032 30.9657C15.5845 32.2843 14.8438 34.0727 14.8438 35.9375V42.5938C17.9302 44.3798 21.4341 45.3177 25 45.3125V45.3125ZM39.8438 35.9375V38.8656C42.546 35.9728 44.344 32.3535 45.0169 28.4526C45.6898 24.5516 45.2082 20.5391 43.6312 16.9082C42.0543 13.2773 39.4509 10.1863 36.1408 8.01514C32.8308 5.84398 28.9585 4.68731 25 4.68731C21.0415 4.68731 17.1692 5.84398 13.8592 8.01514C10.5491 10.1863 7.94566 13.2773 6.36875 16.9082C4.79184 20.5391 4.31022 24.5516 4.98311 28.4526C5.65599 32.3535 7.45405 35.9728 10.1562 38.8656V35.9375C10.1562 33.5215 10.9025 31.1645 12.2931 29.1888C13.6837 27.2131 15.6507 25.7152 17.925 24.9C16.745 23.5427 15.9802 21.8746 15.7221 20.0947C15.4639 18.3148 15.7232 16.4981 16.469 14.8615C17.2148 13.2249 18.4156 11.8373 19.9282 10.8643C21.4409 9.89133 23.2015 9.37398 25 9.37398C26.7985 9.37398 28.5591 9.89133 30.0718 10.8643C31.5844 11.8373 32.7852 13.2249 33.531 14.8615C34.2768 16.4981 34.5361 18.3148 34.2779 20.0947C34.0198 21.8746 33.255 23.5427 32.075 24.9C34.3493 25.7152 36.3163 27.2131 37.7069 29.1888C39.0975 31.1645 39.8438 33.5215 39.8438 35.9375V35.9375ZM25 50C31.6304 50 37.9893 47.3661 42.6777 42.6777C47.3661 37.9893 50 31.6304 50 25C50 18.3696 47.3661 12.0107 42.6777 7.32233C37.9893 2.63392 31.6304 0 25 0C18.3696 0 12.0107 2.63392 7.32233 7.32233C2.63392 12.0107 0 18.3696 0 25C0 31.6304 2.63392 37.9893 7.32233 42.6777C12.0107 47.3661 18.3696 50 25 50V50ZM29.6875 18.75C29.6875 19.9932 29.1936 21.1855 28.3146 22.0646C27.4355 22.9436 26.2432 23.4375 25 23.4375C23.7568 23.4375 22.5645 22.9436 21.6854 22.0646C20.8064 21.1855 20.3125 19.9932 20.3125 18.75C20.3125 17.5068 20.8064 16.3145 21.6854 15.4354C22.5645 14.5564 23.7568 14.0625 25 14.0625C26.2432 14.0625 27.4355 14.5564 28.3146 15.4354C29.1936 16.3145 29.6875 17.5068 29.6875 18.75V18.75Z" fill="#FBBF24"/>
</g>
<defs>
<clipPath id="clip0_97_222">
<rect width="50" height="50" fill="white"/>
</clipPath>
</defs>
</svg>
